<?xml version="1.0" encoding="UTF-8"?>
<!DOCTYPE svg PUBLIC "-//W3C//DTD SVG 1.1//EN" "http://www.w3.org/Graphics/SVG/1.1/DTD/svg11.dtd">
<svg version="1.1" xmlns="http://www.w3.org/2000/svg" xmlns:xlink="http://www.w3.org/1999/xlink" x="0" y="0" width="580" height="536" viewBox="0, 0, 580, 536">
  <g id="Layer_1">
    <path d="M280.148,27.273 L280.144,27.224 L296.272,27.224 L296.268,27.273 C313.319,29.572 343.074,57.333 348.651,93.078 L334.44,104.1 C342.19,78.711 313.082,32.083 296.264,27.322 L288.209,130.709 L280.152,27.322 C263.333,32.083 234.227,78.711 241.976,104.1 L227.766,93.078 C233.342,57.333 263.096,29.572 280.148,27.273 M293.01,257.867 L293.573,260.605 C292.682,260.855 291.785,261.063 290.886,261.268 L290.282,258.317 C291.189,258.149 292.095,257.985 293.01,257.867 M298.535,257.284 L298.881,258.97 C298.007,259.296 297.125,259.581 296.239,259.851 L295.76,257.514 C296.68,257.412 297.603,257.326 298.535,257.284 M302.905,257.268 C302.435,257.502 301.967,257.735 301.491,257.937 L301.341,257.208 C301.858,257.206 302.381,257.236 302.905,257.268 M287.574,261.265 C286.676,261.061 285.778,260.852 284.889,260.604 L285.448,257.87 C286.364,257.99 287.271,258.153 288.178,258.317 L287.574,261.265 z M282.222,259.847 C281.335,259.579 280.453,259.29 279.579,258.968 L279.923,257.288 C280.856,257.333 281.779,257.416 282.699,257.518 L282.222,259.847 z M276.969,257.936 C276.493,257.734 276.025,257.501 275.554,257.268 C276.079,257.238 276.602,257.208 277.117,257.211 L276.969,257.936 z M274.475,252.63 L275.743,268.465 L289.949,270.166 L303.422,268.465 L304.692,252.63 L289.583,255.653 L274.475,252.63 z M256.517,252.988 C257.107,257.346 258.583,268.718 259.435,275.865 C254.205,270.494 250.075,266.597 249.201,264.165 C246.885,257.714 244.932,239.031 244.932,239.031 C244.932,239.031 255.416,241.587 255.416,242.257 C255.416,242.76 255.94,248.345 256.317,251.485 L256.309,251.486 C256.325,251.592 256.345,251.731 256.367,251.893 C256.422,252.331 256.472,252.703 256.517,252.988 M304.734,280.665 C304.435,280.858 304.12,281 303.803,281.137 C303.167,281.403 302.514,281.579 301.865,281.756 C300.558,282.067 299.247,282.291 297.932,282.434 C295.307,282.729 292.68,282.817 290.062,282.739 C287.446,282.668 284.835,282.418 282.239,282.01 C280.94,281.815 279.649,281.543 278.363,281.229 C277.102,280.85 275.755,280.588 274.623,279.799 C275.919,279.932 277.225,279.78 278.525,279.745 C279.821,279.708 281.117,279.655 282.412,279.645 C284.997,279.612 287.579,279.616 290.153,279.704 C292.727,279.776 295.298,279.92 297.865,280.071 C299.147,280.135 300.432,280.237 301.71,280.28 C302.352,280.323 302.989,280.329 303.623,280.319 C303.939,280.313 304.257,280.297 304.559,280.243 C304.841,280.186 305.213,280.145 305.278,279.799 C305.391,280.17 304.994,280.475 304.734,280.665 M308.968,259.729 C308.968,259.729 307.692,271.019 306.684,272.026 C305.7,273.01 290.32,274.186 289.583,274.242 C288.846,274.186 273.468,273.01 272.484,272.026 C271.476,271.019 270.199,259.729 270.199,259.729 C270.199,259.729 266.629,258.285 263.15,256.783 C263.541,259.757 264.014,263.427 264.471,267.031 C265.924,278.553 266.308,281.61 266.001,282.911 C273.238,291.124 280.867,301.663 284.607,314.563 C285.815,315.668 286.848,316.448 287.719,316.993 L287.668,318.157 C287.668,318.157 288.274,318.395 289.583,317.924 C290.893,318.395 291.497,318.157 291.497,318.157 L291.448,316.993 C292.319,316.448 293.353,315.668 294.561,314.563 C298.621,300.555 307.263,289.334 315.014,280.854 C315.344,277.898 316.289,264.482 316.661,256.503 C312.995,258.102 308.968,259.729 308.968,259.729 M315.575,280.059 L315.668,280.137 C315.511,280.307 315.354,280.483 315.197,280.653 C315.289,280.467 315.402,280.268 315.575,280.059 M322.876,251.271 C323.25,248.1 323.751,242.748 323.751,242.257 C323.751,241.587 334.234,239.031 334.234,239.031 C334.234,239.031 332.283,257.714 329.966,264.165 C329.206,266.283 325.972,269.515 321.702,273.855 C321.829,272.027 321.972,269.852 322.141,267.234 C322.66,259.173 322.905,253.831 322.876,251.271 M344.757,49.71 C336.074,41.121 325.669,34.004 314.881,27.224 C327.079,30.945 338.771,36.749 349.009,45.008 C354.044,49.214 358.728,54.04 362.431,59.694 C366.112,65.348 368.807,71.731 370.226,78.375 C371.642,85.024 371.811,91.848 371.077,98.435 C370.355,105.036 368.754,111.401 366.798,117.531 C364.864,123.675 362.446,129.567 360.321,135.457 C359.208,138.39 358.252,141.337 357.491,144.333 L357.324,145.128 C357.5,145.694 357.667,146.261 357.862,146.818 C358.17,147.727 358.468,148.644 358.888,149.487 C359.295,150.333 359.606,151.257 360.102,152.036 C360.579,152.826 360.958,153.706 361.503,154.436 L363.184,156.785 C364.771,158.886 365.693,161.216 366.218,163.505 C366.757,165.8 366.917,168.084 366.86,170.326 C366.788,172.57 366.506,174.782 365.943,176.948 C365.676,178.03 365.308,179.103 364.888,180.166 C364.461,181.213 363.823,182.39 363.161,183.213 C360.491,186.618 357.655,189.588 354.639,192.535 C356.484,188.78 358.72,185.18 360.471,181.575 C360.934,180.652 361.171,179.941 361.385,179.016 C361.574,178.101 361.733,177.166 361.802,176.203 C361.964,174.29 361.978,172.351 361.806,170.454 C361.474,166.696 360.431,162.933 358.423,160.608 L356.368,157.99 C355.651,157.079 355.144,156.064 354.528,155.099 C353.889,154.135 353.52,153.08 353.019,152.067 C352.512,151.054 352.149,150.005 351.779,148.959 C348.844,140.545 348.386,131.817 348.884,123.37 C349.487,114.907 351.147,106.577 354.125,98.723 C353.798,107.104 353.537,115.306 353.956,123.416 C354.241,128.69 354.746,133.956 355.763,139.005 C355.981,137.459 356.249,135.926 356.526,134.403 C357.821,128.112 359.37,121.983 360.694,115.897 C363.396,103.783 364.852,91.555 362.343,80.059 C361.135,74.327 358.94,68.849 355.948,63.752 C352.943,58.648 349.017,54.052 344.757,49.71 M314.881,205.567 C301.173,205.567 302.266,193.615 305.473,186.349 C310.042,176 320.661,160.142 332.353,156.782 C346.409,152.744 360.144,164.172 354.931,181.78 C349.718,199.385 328.59,205.567 314.881,205.567 M296.874,191.187 C281.758,157.052 313.743,111.356 346.536,110.954 C337.934,125.333 344.243,143.762 346.599,146.643 C312.596,143.208 294.991,169.954 296.874,191.187 M356.007,228.012 C357.62,229.624 319.182,238.495 319.182,240.376 C319.182,242.257 317.839,249.247 317.839,249.247 L310.042,251.934 L313.268,218.873 C313.268,218.873 342.567,218.873 342.836,212.422 C342.996,208.605 349.173,199.993 354.64,192.535 C344.606,207.453 354.394,226.398 356.007,228.012 M289.858,204.895 C289.723,205.567 300.201,220.541 300.201,220.541 L295.034,235.673 L289.858,222.771 L286.46,236.208 C285.354,234.731 279.444,223.441 279.174,221.561 C278.907,219.68 289.993,204.224 289.858,204.895 M264.285,205.567 C250.579,205.567 229.448,199.385 224.236,181.78 C219.022,164.172 232.758,152.744 246.814,156.782 C258.506,160.142 269.125,176 273.693,186.349 C276.902,193.615 277.994,205.567 264.285,205.567 M282.294,191.187 C280.414,168.765 266.571,143.208 232.568,146.643 C234.786,141.595 238.817,123.452 234.786,110.954 C264.218,126.072 284.029,128.29 282.294,191.187 M265.899,218.873 L269.125,251.934 L261.329,249.247 C261.329,249.247 259.986,242.257 259.986,240.376 C259.986,238.495 221.547,229.624 223.161,228.012 C224.773,226.398 234.56,207.453 224.527,192.535 C229.993,199.993 236.172,208.605 236.331,212.422 C236.6,218.873 265.899,218.873 265.899,218.873 M216.006,183.213 C215.345,182.39 214.704,181.213 214.28,180.166 C213.859,179.103 213.491,178.03 213.224,176.948 C212.662,174.782 212.378,172.57 212.308,170.326 C212.25,168.084 212.409,165.8 212.948,163.505 C213.473,161.216 214.396,158.886 215.984,156.785 L217.663,154.436 C218.209,153.706 218.588,152.826 219.066,152.036 C219.563,151.257 219.871,150.333 220.279,149.487 C220.698,148.644 220.997,147.727 221.307,146.818 C221.5,146.261 221.668,145.694 221.842,145.128 L221.677,144.333 C220.915,141.337 219.96,138.39 218.848,135.457 C216.722,129.567 214.303,123.675 212.37,117.531 C210.412,111.401 208.813,105.036 208.091,98.435 C207.355,91.848 207.527,85.024 208.94,78.375 C210.359,71.731 213.055,65.348 216.735,59.694 C220.44,54.04 225.124,49.214 230.157,45.008 C240.396,36.749 252.088,30.945 264.285,27.224 C253.498,34.004 243.094,41.121 234.411,49.71 C230.15,54.052 226.225,58.648 223.219,63.752 C220.227,68.849 218.032,74.327 216.825,80.059 C214.314,91.555 215.772,103.783 218.473,115.897 C219.796,121.983 221.345,128.112 222.64,134.403 C222.919,135.926 223.183,137.459 223.404,139.005 C224.42,133.956 224.924,128.69 225.211,123.416 C225.632,115.306 225.368,107.104 225.042,98.723 C228.021,106.577 229.681,114.907 230.284,123.37 C230.779,131.817 230.322,140.545 227.389,148.959 C227.017,150.005 226.656,151.054 226.149,152.067 C225.648,153.08 225.279,154.135 224.64,155.099 C224.023,156.064 223.517,157.079 222.799,157.99 L220.744,160.608 C218.738,162.933 217.693,166.696 217.361,170.454 C217.189,172.351 217.204,174.29 217.366,176.203 C217.435,177.166 217.594,178.101 217.782,179.016 C217.997,179.941 218.234,180.652 218.697,181.575 C220.448,185.18 222.681,188.78 224.527,192.535 C221.512,189.588 218.676,186.618 216.006,183.213 M378.029,136.49 C381.443,134.55 385.007,132.893 388.624,131.378 C395.874,128.375 403.355,125.995 410.874,123.807 C418.398,121.621 425.999,119.718 433.643,118.024 C441.027,116.365 448.449,114.904 455.909,113.605 C456.299,111.899 456.08,109.902 455.622,108.001 C455.093,105.843 454.285,103.715 453.359,101.634 C451.488,97.474 449.123,93.5 446.57,89.66 C441.429,81.99 435.522,74.81 429.24,67.988 C422.971,61.145 416.286,54.673 409.299,48.539 C402.356,42.348 395.072,36.543 387.615,30.947 C395.4,36.078 402.89,41.664 410.107,47.593 C417.281,53.573 424.172,59.907 430.67,66.645 C437.121,73.42 443.215,80.579 448.49,88.373 C451.11,92.278 453.549,96.328 455.524,100.66 C456.501,102.83 457.371,105.069 457.934,107.446 C458.461,109.805 458.864,112.364 457.987,115.013 L457.773,115.659 L457.077,115.777 C449.395,117.073 441.734,118.552 434.101,120.137 C426.474,121.757 418.872,123.493 411.327,125.452 C403.786,127.418 396.316,129.666 389.015,132.367 C385.365,133.721 381.766,135.218 378.306,136.999 C374.884,138.813 371.478,140.823 368.804,143.695 C371.311,140.668 374.643,138.441 378.029,136.49 M389.433,135.618 C403.749,130.47 443.483,119.971 462.351,120.322 C480.598,91.938 391.28,26.088 367.898,19.043 C405.682,44.346 445.949,91.565 447.212,110.954 C434.499,118.86 391.437,117.874 365.7,134.109 C365.339,135.076 364.97,136.044 364.622,137.007 C364.164,138.214 363.765,139.37 363.385,140.515 C364.62,142.069 364.242,144.661 363.038,147.577 C363.205,147.926 363.349,148.257 363.489,148.58 C363.657,148.974 363.831,149.38 363.958,149.576 C364.235,150.036 364.435,150.408 364.635,150.781 C364.829,151.144 365.029,151.518 365.167,151.704 L366.012,152.885 C372.847,145.395 381.082,138.621 389.433,135.618 M400.723,155.273 C398.254,155.43 395.797,155.72 393.364,156.162 C390.931,156.598 388.527,157.241 386.25,158.247 C390.708,155.994 395.724,155.093 400.659,154.539 C405.622,154.015 410.617,153.894 415.601,153.966 C425.574,154.152 435.5,155.18 445.372,156.449 C450.31,157.091 455.233,157.829 460.147,158.621 C465.055,159.449 469.949,160.359 474.832,161.316 C484.291,163.175 493.708,165.224 503.084,167.485 C504.401,165.687 505.12,163.217 505.547,160.772 C506.018,157.987 506.163,155.099 506.151,152.204 C506.095,146.404 505.372,140.568 504.359,134.795 C502.3,123.232 498.986,111.884 495.132,100.745 C491.306,89.587 486.805,78.649 481.782,67.952 C476.837,57.212 471.298,46.746 465.457,36.437 C471.917,46.372 477.809,56.687 483.204,67.262 C488.524,77.873 493.334,88.756 497.482,99.908 C501.554,111.082 504.938,122.538 507.158,134.287 C508.237,140.165 509.035,146.118 509.145,152.168 C509.188,155.193 509.069,158.247 508.507,161.298 C507.917,164.313 507.08,167.498 504.714,170.126 L504.143,170.759 L503.291,170.545 C493.687,168.128 484.012,165.939 474.305,163.944 C469.45,162.945 464.583,162.019 459.708,161.127 C454.838,160.216 449.958,159.359 445.064,158.597 C435.278,157.057 425.433,155.878 415.552,155.318 C410.614,155.039 405.659,154.956 400.723,155.273 M414.388,159.318 C433.684,160.595 481.393,165.39 507.655,180.104 C540.122,146.572 472.195,32.638 448.531,12.551 C479.698,61.231 502.621,136.706 494.243,159.939 C475.632,162.658 426.889,140.177 388.84,145.288 C386.197,146.644 383.542,148.427 380.947,150.517 C383.76,154.646 377.959,160.303 371.12,164.931 C371.369,166.677 371.48,168.498 371.43,170.447 C371.425,170.586 371.411,170.724 371.406,170.863 C384.775,163.944 400.866,158.423 414.388,159.318 M417.665,188.831 C418.737,190.288 419.877,191.691 421.044,193.072 C423.376,195.836 425.828,198.497 428.35,201.088 C433.387,206.28 438.695,211.198 444.146,215.943 C455.019,225.465 466.567,234.217 478.728,241.974 C490.901,249.687 503.639,256.587 517.138,261.519 C523.879,263.98 530.794,265.949 537.829,267.216 C544.863,268.453 552.013,268.97 559.108,268.566 L560.109,268.51 L560.528,269.366 C562.209,272.801 562.577,276.379 562.748,279.848 C562.87,283.333 562.663,286.776 562.296,290.186 C561.556,297.006 560.204,303.702 558.608,310.317 C555.375,323.541 551.092,336.458 546.089,349.071 C541.088,361.686 535.497,374.063 529.171,386.057 C522.788,398.01 515.826,409.688 507.733,420.545 C515.29,409.317 521.968,397.538 527.911,385.411 C533.904,373.311 539.281,360.909 543.991,348.266 C548.653,335.612 552.841,322.768 555.961,309.682 C557.497,303.139 558.785,296.532 559.459,289.891 C559.796,286.575 559.968,283.249 559.833,279.969 C559.69,277.05 559.277,274.101 558.226,271.595 C543.788,272.362 529.501,269.097 516.166,264.152 C502.469,258.994 489.546,252.036 477.41,244.001 C465.292,235.924 453.855,226.881 443.118,217.092 C437.779,212.164 432.626,207.034 427.738,201.662 C425.294,198.978 422.921,196.226 420.672,193.375 C419.56,191.939 418.479,190.478 417.469,188.97 C416.475,187.457 415.48,185.912 414.867,184.2 C415.555,185.88 416.611,187.37 417.665,188.831 M365.149,187.99 C379.935,185.103 405.213,183.271 404.226,194.583 C434.523,228.547 525.904,281.231 540.44,291.391 C554.976,301.551 522.568,388.18 492.169,442.012 C511.886,425.315 584.172,315.713 563.812,263.92 C521.371,274.727 426.846,212.777 417.241,172.721 C417.241,172.721 388.556,180.602 368.956,182.257 C368.328,183.703 367.537,185.067 366.724,186.077 C366.204,186.742 365.676,187.365 365.149,187.99 M421.04,302.129 C420.565,326.217 418.256,350.272 414.344,374.067 C410.219,397.817 404.348,421.325 395.922,443.938 C391.725,455.245 386.889,466.317 381.34,477.016 C375.721,487.674 369.537,498.04 362.488,507.788 C368.965,497.655 374.864,487.184 380.008,476.352 C381.26,473.627 382.656,470.973 383.811,468.206 L387.379,459.956 L390.667,451.592 C391.76,448.803 392.701,445.956 393.725,443.143 C397.614,431.815 401.146,420.362 404.068,408.743 C407.008,397.127 409.372,385.372 411.352,373.559 C415.49,349.948 417.744,326.024 418.713,302.059 C419.211,290.075 419.302,278.069 418.999,266.07 C418.774,254.068 418.081,242.07 416.709,230.126 C420.594,253.883 421.421,278.059 421.04,302.129 M399.603,245.083 C429.193,368.165 369.052,496.081 349.084,524.077 C451.076,425.75 426.949,228.375 420.875,221.84 C420.875,221.84 416.125,226.116 409.098,223.56 C403.794,221.63 376.823,205.016 363.905,196.98 C362.17,197.392 360.652,197.833 359.464,198.29 C358.472,198.672 357.454,198.847 356.448,198.854 C356.197,199.472 355.985,200.095 355.795,200.72 C374.544,205.262 407.364,230.719 399.603,245.083 M145.747,118.024 C153.39,119.718 160.991,121.621 168.515,123.807 C176.035,125.995 183.514,128.375 190.765,131.378 C194.381,132.893 197.946,134.55 201.361,136.49 C204.745,138.441 208.079,140.668 210.583,143.695 C207.912,140.823 204.505,138.813 201.083,136.999 C197.625,135.218 194.025,133.721 190.375,132.367 C183.073,129.666 175.604,127.418 168.063,125.452 C160.518,123.493 152.916,121.757 145.288,120.137 C137.655,118.552 129.994,117.073 122.312,115.777 L121.617,115.659 L121.402,115.013 C120.525,112.364 120.928,109.805 121.455,107.446 C122.018,105.069 122.887,102.83 123.866,100.66 C125.838,96.328 128.279,92.278 130.899,88.373 C136.174,80.579 142.268,73.42 148.72,66.645 C155.216,59.907 162.108,53.573 169.282,47.593 C176.498,41.664 183.99,36.078 191.773,30.947 C184.318,36.543 177.034,42.348 170.089,48.539 C163.103,54.673 156.417,61.145 150.151,67.988 C143.868,74.81 137.959,81.99 132.819,89.66 C130.266,93.5 127.901,97.474 126.029,101.634 C125.104,103.715 124.296,105.843 123.766,108.001 C123.31,109.902 123.089,111.899 123.481,113.605 C130.94,114.904 138.363,116.365 145.747,118.024 M211.491,19.043 C188.109,26.088 98.79,91.938 117.037,120.322 C135.905,119.971 175.64,130.47 189.957,135.618 C198.258,138.603 206.443,145.313 213.252,152.748 L213.945,151.776 C214.137,151.518 214.338,151.144 214.532,150.781 C214.731,150.408 214.932,150.036 215.148,149.68 C215.336,149.38 215.509,148.974 215.678,148.58 C215.833,148.217 215.99,147.857 216.161,147.505 L216.243,147.308 C215.177,144.626 214.837,142.239 215.855,140.72 C215.463,139.524 215.043,138.321 214.572,137.083 C214.187,136.014 213.8,134.97 213.413,133.931 C187.644,117.879 144.844,118.831 132.177,110.954 C133.44,91.565 173.707,44.346 211.491,19.043 M186.025,156.162 C183.592,155.72 181.134,155.43 178.667,155.273 C173.73,154.956 168.776,155.039 163.837,155.318 C153.956,155.878 144.11,157.057 134.325,158.597 C129.43,159.359 124.55,160.216 119.681,161.127 C114.807,162.019 109.939,162.945 105.084,163.944 C95.376,165.939 85.703,168.128 76.098,170.545 L75.246,170.759 L74.676,170.126 C72.311,167.498 71.47,164.313 70.881,161.298 C70.319,158.247 70.201,155.193 70.244,152.168 C70.354,146.118 71.152,140.165 72.232,134.287 C74.45,122.538 77.836,111.082 81.907,99.908 C86.054,88.756 90.865,77.873 96.185,67.262 C101.58,56.687 107.47,46.372 113.934,36.437 C108.09,46.746 102.553,57.212 97.607,67.952 C92.583,78.649 88.083,89.587 84.257,100.745 C80.403,111.884 77.089,123.232 75.029,134.795 C74.017,140.568 73.294,146.404 73.239,152.204 C73.225,155.099 73.372,157.987 73.841,160.772 C74.27,163.217 74.989,165.687 76.304,167.485 C85.682,165.224 95.099,163.175 104.558,161.316 C109.439,160.359 114.334,159.449 119.242,158.621 C124.155,157.829 129.08,157.091 134.017,156.449 C143.89,155.18 153.816,154.152 163.789,153.966 C168.773,153.894 173.768,154.015 178.731,154.539 C183.666,155.093 188.681,155.994 193.14,158.247 C190.864,157.241 188.458,156.598 186.025,156.162 M198.443,150.517 C195.847,148.427 193.191,146.644 190.547,145.285 C152.499,140.177 103.757,162.658 85.147,159.939 C76.769,136.706 99.691,61.231 130.859,12.551 C107.195,32.638 39.268,146.572 71.736,180.104 C97.996,165.39 145.706,160.595 165.001,159.318 C178.445,158.429 194.431,163.88 207.755,170.743 C207.75,170.65 207.743,170.562 207.739,170.471 C207.686,168.457 207.801,166.587 208.066,164.792 C201.314,160.19 195.658,154.607 198.443,150.517 M161.919,188.97 C160.909,190.478 159.83,191.939 158.716,193.375 C156.468,196.226 154.094,198.978 151.651,201.662 C146.762,207.034 141.611,212.164 136.271,217.092 C125.535,226.881 114.098,235.924 101.979,244.001 C89.843,252.036 76.919,258.994 63.223,264.152 C49.887,269.097 35.602,272.362 21.163,271.595 C20.112,274.101 19.699,277.05 19.556,279.969 C19.42,283.249 19.592,286.575 19.93,289.891 C20.604,296.532 21.893,303.139 23.428,309.682 C26.548,322.768 30.736,335.612 35.397,348.266 C40.108,360.909 45.485,373.311 51.478,385.411 C57.422,397.538 64.099,409.317 71.654,420.545 C63.563,409.688 56.602,398.01 50.217,386.057 C43.893,374.063 38.3,361.686 33.3,349.071 C28.297,336.458 24.013,323.541 20.782,310.317 C19.186,303.702 17.832,297.006 17.093,290.186 C16.727,286.776 16.52,283.333 16.642,279.848 C16.813,276.379 17.18,272.801 18.862,269.366 L19.28,268.51 L20.281,268.566 C27.376,268.97 34.526,268.453 41.561,267.216 C48.594,265.949 55.511,263.98 62.25,261.519 C75.749,256.587 88.488,249.687 100.661,241.974 C112.823,234.217 124.369,225.465 135.244,215.943 C140.694,211.198 146.001,206.28 151.041,201.088 C153.561,198.497 156.012,195.836 158.343,193.072 C159.511,191.691 160.653,190.288 161.723,188.831 C162.778,187.37 163.834,185.88 164.523,184.2 C163.909,185.912 162.915,187.457 161.919,188.97 M15.577,263.92 C-4.784,315.713 67.503,425.315 87.219,442.012 C56.822,388.18 24.414,301.551 38.949,291.391 C53.485,281.231 144.867,228.547 175.163,194.583 C174.181,183.339 199.155,185.081 213.976,187.939 C213.453,187.316 212.927,186.695 212.409,186.034 C211.616,185.049 210.817,183.666 210.199,182.236 C190.607,180.539 162.149,172.721 162.149,172.721 C152.543,212.777 58.018,274.727 15.577,263.92 M175.322,408.743 C178.243,420.362 181.776,431.815 185.663,443.143 C186.689,445.956 187.629,448.803 188.722,451.592 L192.009,459.956 L195.579,468.206 C196.734,470.973 198.129,473.627 199.381,476.352 C204.525,487.184 210.424,497.655 216.903,507.788 C209.853,498.04 203.668,487.674 198.047,477.016 C192.499,466.317 187.666,455.245 183.465,443.938 C175.04,421.325 169.17,397.817 165.044,374.067 C161.133,350.272 158.823,326.217 158.351,302.129 C157.968,278.059 158.793,253.883 162.678,230.126 C161.309,242.07 160.616,254.068 160.391,266.07 C160.087,278.069 160.178,290.075 160.675,302.059 C161.645,326.024 163.9,349.948 168.038,373.559 C170.017,385.372 172.38,397.127 175.322,408.743 M215.484,196.98 C202.566,205.019 175.593,221.63 170.292,223.56 C163.263,226.116 158.515,221.84 158.515,221.84 C152.442,228.375 128.315,425.75 230.305,524.077 C210.337,496.081 150.196,368.165 179.786,245.083 C172.052,230.769 204.616,205.439 223.396,200.77 C223.204,200.126 222.988,199.485 222.73,198.849 C221.792,198.818 220.848,198.644 219.924,198.29 C218.738,197.833 217.219,197.393 215.484,196.98" fill="#D8272D"/>
    <path d="M305.278,279.799 C305.391,280.17 304.994,280.475 304.734,280.665 C304.435,280.858 304.12,281 303.803,281.137 C303.167,281.403 302.514,281.579 301.865,281.756 C300.559,282.067 299.247,282.291 297.934,282.434 C295.307,282.729 292.68,282.817 290.062,282.739 C287.444,282.668 284.833,282.418 282.24,282.01 C280.942,281.815 279.651,281.543 278.365,281.229 C277.102,280.85 275.755,280.588 274.623,279.799 C275.919,279.932 277.225,279.78 278.524,279.745 C279.82,279.708 281.117,279.655 282.411,279.645 C284.997,279.612 287.579,279.616 290.153,279.704 C292.727,279.776 295.298,279.92 297.865,280.071 C299.148,280.135 300.431,280.237 301.71,280.28 C302.35,280.323 302.989,280.329 303.623,280.319 C303.938,280.313 304.257,280.297 304.559,280.243 C304.841,280.186 305.213,280.145 305.278,279.799 M492.169,442.012 C522.568,388.18 554.976,301.551 540.44,291.391 C525.904,281.231 434.523,228.547 404.226,194.583 C405.213,183.271 379.935,185.103 365.148,187.99 C365.676,187.365 366.204,186.742 366.724,186.077 C367.537,185.067 368.328,183.703 368.958,182.257 C388.556,180.602 417.241,172.721 417.241,172.721 C426.846,212.777 521.371,274.727 563.812,263.92 C584.172,315.713 511.886,425.315 492.169,442.012 M412.047,215.467 C408.939,214.297 393.62,205.208 376.889,194.898 C384.626,194.122 392.38,194.102 395.66,195.488 C395.851,197.267 396.589,198.962 397.799,200.318 C402.137,205.18 407.639,210.377 413.917,215.749 C413.421,215.787 412.792,215.739 412.047,215.467 M349.084,524.077 C369.052,496.081 429.193,368.165 399.603,245.083 C407.364,230.719 374.544,205.262 355.794,200.72 C355.985,200.095 356.197,199.471 356.448,198.854 C357.454,198.847 358.472,198.672 359.464,198.29 C360.652,197.833 362.17,197.392 363.905,196.98 C376.823,205.016 403.794,221.63 409.098,223.56 C416.125,226.116 420.875,221.84 420.875,221.84 C426.949,228.375 451.076,425.75 349.084,524.077 M356.007,228.012 C357.62,229.624 319.182,238.495 319.182,240.376 C319.182,242.257 317.839,249.247 317.839,249.247 L310.042,251.934 L313.268,218.873 C313.268,218.873 342.567,218.873 342.836,212.422 C342.995,208.605 349.173,199.993 354.64,192.535 C344.606,207.453 354.394,226.398 356.007,228.012 M329.966,264.165 C329.206,266.283 325.972,269.515 321.702,273.855 C321.829,272.027 321.972,269.852 322.141,267.234 C322.66,259.173 322.905,253.831 322.876,251.271 C323.25,248.1 323.751,242.748 323.751,242.257 C323.751,241.587 334.234,239.031 334.234,239.031 C334.234,239.031 332.283,257.714 329.966,264.165 M294.561,314.563 C293.353,315.668 292.32,316.448 291.448,316.993 L291.497,318.157 C291.497,318.157 290.893,318.395 289.583,317.924 C288.274,318.395 287.669,318.157 287.669,318.157 L287.719,316.993 C286.848,316.448 285.813,315.668 284.606,314.563 C280.866,301.663 273.24,291.124 266.001,282.911 C266.309,281.61 265.924,278.553 264.471,267.031 C264.014,263.427 263.541,259.757 263.15,256.783 C266.629,258.285 270.199,259.729 270.199,259.729 C270.199,259.729 271.475,271.019 272.484,272.026 C273.468,273.01 288.848,274.186 289.583,274.242 C290.32,274.186 305.7,273.01 306.684,272.026 C307.692,271.019 308.968,259.729 308.968,259.729 C308.968,259.729 312.995,258.102 316.663,256.503 C316.289,264.482 315.344,277.898 315.014,280.854 C307.263,289.334 298.621,300.555 294.561,314.563 M249.202,264.165 C246.883,257.714 244.932,239.031 244.932,239.031 C244.932,239.031 255.415,241.587 255.415,242.257 C255.415,242.76 255.939,248.345 256.317,251.485 L256.309,251.486 C256.325,251.592 256.345,251.731 256.367,251.893 C256.422,252.331 256.473,252.703 256.517,252.988 C257.107,257.346 258.583,268.718 259.434,275.865 C254.207,270.494 250.076,266.597 249.202,264.165 M223.161,228.012 C224.773,226.398 234.562,207.453 224.527,192.535 C229.994,199.993 236.17,208.605 236.33,212.422 C236.599,218.873 265.898,218.873 265.898,218.873 L269.124,251.934 L261.328,249.247 C261.328,249.247 259.985,242.257 259.985,240.376 C259.985,238.495 221.547,229.624 223.161,228.012 M179.786,245.083 C150.196,368.165 210.337,496.081 230.307,524.077 C128.314,425.75 152.441,228.375 158.514,221.84 C158.514,221.84 163.264,226.116 170.292,223.56 C175.593,221.63 202.564,205.019 215.484,196.98 C217.218,197.393 218.738,197.833 219.924,198.29 C220.848,198.644 221.793,198.818 222.728,198.849 C222.986,199.485 223.204,200.126 223.398,200.77 C204.617,205.439 172.052,230.769 179.786,245.083 M181.591,200.318 C182.801,198.962 183.54,197.267 183.728,195.488 C187.011,194.103 194.763,194.124 202.499,194.9 C185.768,205.208 170.45,214.297 167.345,215.465 C166.61,215.731 165.994,215.783 165.489,215.736 C171.759,210.369 177.257,205.175 181.591,200.318 M38.948,291.391 C24.413,301.551 56.821,388.18 87.22,442.012 C67.502,425.315 -4.783,315.713 15.578,263.92 C58.018,274.727 152.543,212.777 162.147,172.721 C162.147,172.721 190.607,180.539 210.199,182.236 C210.817,183.666 211.617,185.049 212.409,186.034 C212.927,186.695 213.453,187.316 213.976,187.939 C199.155,185.081 174.181,183.339 175.163,194.583 C144.866,228.547 53.485,281.231 38.948,291.391 M71.735,180.104 C39.268,146.572 107.195,32.638 130.858,12.551 C99.691,61.231 76.768,136.706 85.146,159.939 C103.757,162.658 152.498,140.177 190.547,145.285 C193.193,146.644 195.847,148.427 198.443,150.517 C195.658,154.607 201.314,160.19 208.067,164.792 C207.801,166.587 207.687,168.456 207.74,170.471 C207.743,170.562 207.751,170.65 207.754,170.743 C194.429,163.88 178.445,158.429 165.001,159.318 C145.706,160.595 97.995,165.39 71.735,180.104 M117.038,120.322 C98.79,91.938 188.109,26.088 211.491,19.043 C173.707,44.346 133.44,91.565 132.176,110.954 C144.843,118.831 187.642,117.879 213.412,133.931 C213.799,134.97 214.186,136.014 214.573,137.083 C215.045,138.321 215.461,139.524 215.854,140.72 C214.837,142.24 215.177,144.626 216.243,147.308 L216.161,147.505 C215.989,147.857 215.834,148.217 215.678,148.58 C215.51,148.974 215.337,149.38 215.148,149.68 C214.932,150.036 214.732,150.408 214.531,150.781 C214.337,151.144 214.139,151.518 213.945,151.776 L213.252,152.748 C206.443,145.313 198.258,138.603 189.957,135.618 C175.64,130.47 135.906,119.971 117.038,120.322 M208.091,98.435 C207.357,91.848 207.526,85.024 208.941,78.375 C210.361,71.731 213.054,65.348 216.738,59.694 C220.44,54.04 225.122,49.214 230.156,45.008 C240.396,36.749 252.088,30.945 264.287,27.224 C253.497,34.004 243.092,41.121 234.41,49.71 C230.15,54.052 226.225,58.648 223.219,63.752 C220.226,68.849 218.032,74.327 216.825,80.059 C214.314,91.555 215.771,103.783 218.473,115.897 C219.796,121.983 221.345,128.112 222.64,134.403 C222.919,135.926 223.185,137.459 223.403,139.005 C224.422,133.956 224.924,128.69 225.21,123.416 C225.631,115.306 225.37,107.104 225.042,98.723 C228.019,106.577 229.681,114.907 230.284,123.37 C230.779,131.817 230.322,140.545 227.387,148.959 C227.019,150.005 226.656,151.054 226.148,152.067 C225.646,153.08 225.279,154.135 224.64,155.099 C224.022,156.064 223.517,157.079 222.799,157.99 L220.743,160.608 C218.736,162.933 217.694,166.696 217.362,170.452 C217.189,172.351 217.203,174.29 217.366,176.203 C217.433,177.166 217.592,178.101 217.784,179.016 C217.997,179.941 218.232,180.652 218.697,181.575 C220.447,185.18 222.681,188.78 224.529,192.535 C221.512,189.588 218.677,186.618 216.005,183.213 C215.345,182.39 214.706,181.213 214.279,180.166 C213.858,179.103 213.49,178.03 213.223,176.948 C212.663,174.782 212.378,172.57 212.309,170.326 C212.25,168.084 212.409,165.8 212.949,163.505 C213.473,161.216 214.396,158.886 215.984,156.785 L217.663,154.436 C218.208,153.706 218.588,152.826 219.066,152.036 C219.562,151.257 219.871,150.333 220.28,149.487 C220.699,148.644 220.997,147.727 221.305,146.818 C221.499,146.261 221.668,145.694 221.842,145.128 L221.676,144.333 C220.915,141.337 219.96,138.39 218.846,135.457 C216.721,129.567 214.304,123.675 212.368,117.531 C210.412,111.401 208.812,105.036 208.091,98.435 M226.288,97.718 L220.473,98.902 C220.5,99.59 220.525,100.279 220.553,100.965 C219.739,93.387 219.998,86.956 221.296,81.002 C222.378,75.879 224.35,70.854 227.158,66.071 C229.609,61.906 232.953,57.725 237.624,52.961 C239.797,50.811 242.102,48.748 244.484,46.77 C234.427,58.822 226.019,74.612 223.248,92.373 L222.833,95.039 L226.288,97.718 z M280.148,27.273 L280.143,27.224 L296.271,27.224 L296.267,27.273 C313.319,29.572 343.074,57.333 348.651,93.078 L334.44,104.1 C342.19,78.711 313.082,32.083 296.263,27.322 L288.208,130.709 L280.151,27.322 C263.333,32.083 234.226,78.711 241.976,104.1 L227.764,93.078 C233.342,57.333 263.096,29.572 280.148,27.273 M314.881,205.567 C301.173,205.567 302.266,193.615 305.473,186.349 C310.042,176 320.661,160.142 332.353,156.782 C346.409,152.744 360.144,164.172 354.931,181.78 C349.718,199.385 328.59,205.567 314.881,205.567 M346.536,110.954 C337.934,125.333 344.243,143.762 346.599,146.643 C312.596,143.208 294.992,169.954 296.873,191.187 C281.756,157.052 313.743,111.356 346.536,110.954 M346.948,106.376 L346.479,106.382 C343.5,106.419 340.499,106.814 337.508,107.505 L349.442,98.251 C348.491,100.878 347.651,103.583 346.948,106.376 M348.856,154.079 C345.611,152.352 341.927,151.396 338.028,151.396 C335.713,151.396 333.378,151.731 331.09,152.388 C317.238,156.37 306.16,173.788 301.569,183.906 C302.491,176.448 305.874,169.058 311.206,163.234 C316.349,157.613 325.651,150.916 340.755,150.916 C342.508,150.916 344.32,151.008 346.139,151.192 L347.791,151.364 C348.095,152.214 348.438,153.113 348.893,154.034 L348.856,154.079 M350.701,97.274 L353.584,95.039 L353.167,92.373 C349.815,70.883 338.212,52.289 325.419,39.701 C331.04,43.689 336.608,48.079 341.495,52.911 C346.214,57.725 349.557,61.906 352.005,66.067 C354.817,70.854 356.79,75.879 357.877,81.035 C359.171,86.965 359.429,93.384 358.615,100.958 C358.64,100.274 358.667,99.589 358.693,98.902 L350.701,97.274 z M246.813,156.782 C258.506,160.142 269.124,176 273.694,186.349 C276.901,193.615 277.994,205.567 264.287,205.567 C250.578,205.567 229.448,199.385 224.235,181.78 C219.023,164.172 232.759,152.744 246.813,156.782 M231.378,151.359 L233.027,151.192 C234.926,151 236.8,150.903 238.598,150.903 C259.648,150.903 270.988,164.318 275.541,179.736 C270.14,169.575 260.168,155.863 248.076,152.388 C245.789,151.731 243.455,151.396 241.14,151.396 C237.301,151.396 233.674,152.326 230.471,154 L230.353,153.854 C230.767,152.993 231.094,152.153 231.378,151.359 M236.874,106.887 L231.627,104.191 C231.34,103.167 231.038,102.155 230.715,101.152 L240.375,108.643 C239.219,108.071 238.059,107.496 236.874,106.887 M234.786,110.954 C264.219,126.072 284.028,128.29 282.295,191.187 C280.415,168.765 266.571,143.208 232.568,146.643 C234.786,141.595 238.817,123.452 234.786,110.954 M304.692,252.63 L303.423,268.465 L289.949,270.166 L275.743,268.465 L274.475,252.63 L289.583,255.653 L304.692,252.63 z M289.583,251.542 L273.299,247.649 L270.045,214.302 L265.899,214.302 C254.961,214.302 243.691,212.859 240.784,211.149 C240.443,209.095 239.383,206.645 237.617,203.611 C245.831,208.031 255.538,210.139 264.287,210.139 C272.23,210.139 276.126,206.716 278,203.844 C280.549,199.931 280.625,195.325 279.979,191.506 L286.866,191.313 C288.412,135.13 272.354,124.339 249.504,113.105 L246.348,102.764 C243.266,92.666 246.828,76.735 255.874,60.149 C262.583,47.841 270.238,38.977 276.132,34.591 L283.651,131.065 L292.766,131.065 L300.284,34.591 C306.177,38.977 313.83,47.841 320.542,60.149 C329.589,76.735 333.151,92.666 330.069,102.764 L327.563,110.968 C316.97,115.941 307.099,124.725 299.718,136.218 C287.792,154.794 285.164,176.036 292.694,193.039 L299.212,191.354 C298.539,195.202 298.585,199.88 301.168,203.844 C303.041,206.716 306.939,210.139 314.881,210.139 C323.628,210.139 333.335,208.031 341.549,203.613 C339.784,206.645 338.724,209.095 338.384,211.146 C335.479,212.854 324.207,214.298 313.268,214.302 L309.121,214.303 L305.869,247.646 L289.583,251.542 z M349.009,45.008 C354.043,49.214 358.728,54.04 362.431,59.694 C366.112,65.348 368.807,71.731 370.226,78.375 C371.642,85.024 371.811,91.848 371.077,98.435 C370.355,105.036 368.754,111.401 366.798,117.531 C364.864,123.675 362.446,129.567 360.321,135.457 C359.208,138.39 358.252,141.337 357.489,144.333 L357.324,145.128 C357.5,145.694 357.667,146.261 357.862,146.818 C358.17,147.727 358.468,148.644 358.888,149.487 C359.294,150.333 359.606,151.257 360.102,152.036 C360.579,152.826 360.958,153.706 361.503,154.436 L363.184,156.785 C364.771,158.886 365.693,161.216 366.218,163.505 C366.757,165.8 366.917,168.084 366.86,170.326 C366.788,172.57 366.506,174.782 365.943,176.948 C365.676,178.03 365.308,179.103 364.888,180.166 C364.461,181.213 363.823,182.39 363.161,183.213 C360.491,186.618 357.653,189.588 354.639,192.535 C356.485,188.78 358.72,185.18 360.471,181.575 C360.934,180.652 361.171,179.941 361.385,179.016 C361.574,178.101 361.733,177.166 361.802,176.203 C361.964,174.29 361.976,172.351 361.806,170.452 C361.474,166.696 360.431,162.933 358.423,160.608 L356.368,157.99 C355.651,157.079 355.144,156.064 354.528,155.099 C353.889,154.135 353.52,153.08 353.019,152.067 C352.511,151.054 352.149,150.005 351.779,148.959 C348.844,140.545 348.388,131.817 348.884,123.37 C349.487,114.907 351.145,106.577 354.125,98.723 C353.798,107.104 353.537,115.306 353.956,123.416 C354.242,128.69 354.746,133.956 355.763,139.005 C355.981,137.459 356.249,135.926 356.526,134.403 C357.821,128.112 359.37,121.983 360.694,115.897 C363.396,103.783 364.852,91.555 362.343,80.059 C361.135,74.327 358.94,68.849 355.948,63.752 C352.943,58.648 349.017,54.052 344.757,49.71 C336.074,41.121 325.669,34.004 314.881,27.224 C327.079,30.945 338.771,36.749 349.009,45.008 M447.212,110.954 C445.949,91.565 405.68,44.346 367.898,19.043 C391.28,26.088 480.598,91.938 462.351,120.322 C443.483,119.971 403.749,130.47 389.433,135.618 C381.082,138.621 372.847,145.395 366.012,152.885 L365.167,151.704 C365.029,151.518 364.829,151.144 364.635,150.781 C364.435,150.408 364.235,150.036 363.958,149.576 C363.831,149.38 363.657,148.974 363.489,148.58 C363.349,148.257 363.205,147.926 363.038,147.577 C364.242,144.661 364.62,142.069 363.385,140.515 C363.765,139.37 364.163,138.214 364.622,137.007 C364.97,136.044 365.339,135.076 365.7,134.109 C391.437,117.874 434.499,118.86 447.212,110.954 M494.241,159.939 C502.621,136.706 479.698,61.231 448.531,12.551 C472.195,32.638 540.122,146.572 507.655,180.104 C481.393,165.39 433.684,160.595 414.388,159.318 C400.866,158.423 384.775,163.944 371.406,170.863 C371.411,170.724 371.425,170.586 371.43,170.447 C371.48,168.498 371.369,166.677 371.12,164.931 C377.959,160.303 383.76,154.646 380.947,150.517 C383.542,148.427 386.197,146.644 388.84,145.288 C426.889,140.177 475.632,162.658 494.241,159.939 M571.827,260.77 C570.241,256.73 565.898,254.502 561.686,255.572 C545.72,259.645 517.309,251.007 487.55,233.047 C455.205,213.522 429.737,187.889 425.619,170.712 C425.458,170.042 425.197,169.413 424.888,168.811 C445.525,170.767 482.296,175.77 503.444,187.621 C506.854,189.529 511.126,188.907 513.842,186.098 C521.875,177.802 525.561,165.676 524.798,150.064 C522.318,99.391 473.91,22.796 454.105,5.984 C450.855,3.226 446.072,3.256 442.863,6.066 C439.651,8.871 438.978,13.604 441.275,17.196 C469.598,61.434 489.561,126.348 487.27,151.375 C480.465,150.685 470.684,148.251 460.479,145.712 C446.77,142.3 431.316,138.459 415.879,136.777 C432.314,132.572 451.5,128.74 462.191,128.934 C465.186,129.041 467.981,127.495 469.598,124.979 C472.744,120.086 475.546,111.675 471.02,99.402 C458.331,65.005 391.797,17.247 370.383,10.795 C366.302,9.566 361.93,11.506 360.111,15.363 C358.29,19.219 359.562,23.827 363.106,26.201 C398.361,49.81 429.874,87.769 437.09,105.764 C432.066,107.139 424.995,108.333 418.083,109.501 C402.951,112.057 385.202,115.077 370.108,121.988 C370.458,120.967 370.827,119.958 371.152,118.923 C373.487,111.613 374.948,105.074 375.62,98.94 C376.454,91.455 376.142,84.215 374.698,77.419 C373.185,70.346 370.27,63.353 366.256,57.19 C362.625,51.648 357.943,46.517 351.881,41.45 C341.671,33.213 329.671,26.955 316.214,22.852 L313.115,29.642 C308.91,26.873 304.816,24.845 301.085,23.693 L301.152,22.653 L280.143,22.653 L275.266,22.702 L275.33,23.693 C272.235,24.65 268.886,26.211 265.438,28.292 L262.952,22.852 C249.496,26.955 237.497,33.213 227.226,41.5 C221.222,46.517 216.542,51.648 212.907,57.199 C208.898,63.352 205.981,70.346 204.469,77.423 C203.025,84.215 202.713,91.455 203.546,98.931 C204.219,105.074 205.681,111.613 208.009,118.904 C208.325,119.907 208.679,120.878 209.017,121.868 C193.981,115.041 176.349,112.042 161.306,109.501 C154.394,108.333 147.325,107.139 142.3,105.764 C149.517,87.769 181.03,49.81 216.285,26.201 C219.829,23.827 221.101,19.219 219.281,15.363 C217.458,11.506 213.096,9.562 209.006,10.795 C187.593,17.245 121.058,65.005 108.369,99.402 C103.841,111.675 106.644,120.086 109.793,124.979 C111.408,127.495 114.24,129.022 117.197,128.934 C127.864,128.727 147.063,132.564 163.511,136.776 C148.072,138.457 132.618,142.3 118.91,145.712 C108.704,148.251 98.922,150.685 92.116,151.375 C89.827,126.346 109.79,61.433 138.113,17.196 C140.413,13.604 139.738,8.871 136.527,6.066 C133.316,3.256 128.536,3.226 125.284,5.984 C105.479,22.796 57.069,99.392 54.591,150.064 C53.828,165.677 57.514,177.802 65.546,186.098 C68.264,188.904 72.533,189.53 75.946,187.618 C97.092,175.77 133.862,170.767 154.5,168.811 C154.192,169.413 153.932,170.042 153.772,170.712 C149.653,187.888 124.188,213.52 91.843,233.042 C62.081,251.006 33.676,259.643 17.703,255.572 C13.498,254.498 9.15,256.729 7.561,260.77 C-14.602,317.149 60.184,430.405 81.654,448.586 C83.259,449.946 85.24,450.627 87.22,450.627 C89.167,450.627 91.116,449.969 92.71,448.651 C95.925,445.993 96.773,441.411 94.722,437.778 C63.149,381.87 39.157,310.118 44.44,298.069 C47.608,295.909 54.05,291.907 62.078,286.915 C84.298,273.101 119.331,251.314 147.447,230.137 C143.14,252.993 141.386,298.209 145.309,339.354 C150.81,397.004 168.983,476.924 224.326,530.278 C225.989,531.881 228.146,532.692 230.307,532.692 C232.307,532.692 234.309,531.997 235.93,530.598 C239.301,527.694 239.903,522.696 237.317,519.077 C223.226,499.319 157.997,372.563 188.163,247.096 C188.658,245.029 188.375,242.854 187.363,240.986 C187.045,240.396 187.327,238.947 188.081,237.29 C192.932,226.642 212.255,212.955 224.365,209.424 C223.96,217.105 220.691,223.675 219.769,224.947 L218.032,226.779 L218.693,229.313 C219.576,232.698 221.661,233.395 240.296,238.654 L240.386,239.509 C240.594,241.477 242.465,258.933 244.898,265.71 C245.971,268.693 249.054,271.828 253.725,276.571 C262.252,285.237 275.14,298.329 280.215,315.836 L280.574,317.067 L281.517,317.932 C282.033,318.405 282.542,318.846 283.045,319.25 L282.959,321.217 L285.997,322.411 C286.435,322.583 287.162,322.788 288.14,322.788 C288.608,322.788 289.089,322.741 289.583,322.649 C290.078,322.741 290.559,322.788 291.026,322.788 C292.007,322.788 292.733,322.583 293.171,322.411 L296.207,321.217 L296.121,319.25 C296.625,318.846 297.133,318.405 297.651,317.932 L298.595,317.067 L298.952,315.836 C302.89,302.25 311.529,291.334 319.189,283.071 C319.189,283.071 324.093,277.943 325.443,276.571 C330.112,271.828 333.197,268.693 334.268,265.71 C336.702,258.933 338.575,241.477 338.782,239.509 L338.87,238.654 C357.507,233.395 359.59,232.698 360.474,229.313 L361.091,226.631 L359.376,224.916 C358.422,223.567 355.188,217.006 354.806,209.359 C366.899,212.788 386.428,226.578 391.307,237.29 C392.06,238.947 392.342,240.398 392.025,240.988 C391.016,242.854 390.732,245.031 391.229,247.096 C421.392,372.565 356.161,499.319 342.071,519.073 C339.487,522.696 340.089,527.694 343.458,530.598 C345.078,531.997 347.084,532.692 349.084,532.692 C351.245,532.692 353.398,531.881 355.063,530.278 C410.406,476.924 428.577,397.004 434.08,339.354 C438.003,298.209 436.25,252.995 431.943,230.137 C460.063,251.32 495.104,273.108 517.326,286.924 C525.347,291.911 531.782,295.911 534.948,298.069 C540.227,310.127 516.237,381.872 484.667,437.778 C482.618,441.411 483.465,445.993 486.679,448.651 C488.273,449.969 490.223,450.627 492.17,450.627 C494.153,450.627 496.132,449.946 497.737,448.586 C519.206,430.405 593.992,317.149 571.827,260.77" fill="#F1AA49"/>
  </g>
</svg>
